<?xml version="1.0" encoding="utf-8"?>
<!-- Generator: Adobe Illustrator 16.0.0, SVG Export Plug-In . SVG Version: 6.00 Build 0)  -->
<!DOCTYPE svg PUBLIC "-//W3C//DTD SVG 1.1//EN" "http://www.w3.org/Graphics/SVG/1.1/DTD/svg11.dtd">
<svg version="1.1" id="Capa_1" xmlns="http://www.w3.org/2000/svg" xmlns:xlink="http://www.w3.org/1999/xlink" x="0px" y="0px"
	 width="341px" height="347px" viewBox="0 0 341 347" enable-background="new 0 0 341 347" xml:space="preserve">
<g>
	<g>
		<g>
			<g>
				<g>
					<path fill="#FFFFFF" d="M198.438,11.092c54.811,9.699,98.097,46.549,118.559,94.246l2.555-0.133
						c-20.623-48.811-64.743-86.584-120.692-96.486C117.549-5.67,39.478,43.756,16.121,120.911l2.563-0.132
						C42.003,45.255,118.636-3.031,198.438,11.092z"/>
				</g>
			</g>
			<g>
				<g>
					<path fill="#FFFFFF" d="M315.783,221.156c-25.804,71.428-100.105,116.27-177.38,102.594
						c-52.17-9.232-93.9-43.069-115.445-87.437l-2.601,0.136c21.737,45.487,64.308,80.235,117.626,89.671
						c78.793,13.945,154.545-32.031,180.419-105.1L315.783,221.156z"/>
				</g>
			</g>
			<g>
				<g>
					<path fill="#FFFFFF" d="M197.046,18.743c47.448,8.396,85.836,38.12,107.144,77.538l1.467-0.079
						c-21.434-40.033-60.296-70.256-108.38-78.765C124.785,4.608,54.987,45.255,28.474,110.964l1.479-0.08
						C56.416,46.091,125.394,6.062,197.046,18.743z"/>
				</g>
			</g>
			<g>
				<g>
					<path fill="#FFFFFF" d="M308.29,221.104c-25.245,67.079-95.533,108.975-168.609,96.043
						c-48.932-8.66-88.271-39.98-109.131-81.248l-1.439,0.077c20.973,41.882,60.775,73.708,110.338,82.479
						c73.916,13.08,144.996-29.446,170.283-97.426L308.29,221.104z"/>
				</g>
			</g>
		</g>
	</g>
</g>
<g>
	<path fill="#FFFFFF" d="M167.597,91.255c0,0.133-0.133,0.199-0.398,0.199h-0.143c-0.152,0-0.313,0-0.484,0h-0.229
		c-0.932,0-1.722,0.185-2.368,0.551c-0.266,0.146-0.428,0.221-0.484,0.221c-0.171,0-0.257-0.115-0.257-0.343l0.028-0.885
		c-0.817,0.818-1.788,1.228-2.91,1.228c-1.598,0-2.915-0.618-3.951-1.85s-1.555-2.803-1.555-4.712c0-1.968,0.518-3.563,1.555-4.785
		c1.037-1.223,2.392-1.833,4.065-1.833c1.293,0,2.264,0.464,2.91,1.396v-4.45c0-1.444-0.066-2.339-0.197-2.683
		c-0.113-0.284-0.282-0.418-0.507-0.398c-0.544,0.057-0.871,0.086-0.984,0.086c-0.244,0-0.365-0.086-0.365-0.257
		c0-0.172,0.104-0.256,0.312-0.256l1.02,0.027c0.567,0.02,1.437-0.246,2.608-0.799c0.075-0.038,0.142-0.057,0.198-0.057
		c0.188,0,0.283,0.229,0.283,0.685c0,0.114,0,0.313,0,0.599c0,0.305,0,0.571,0,0.799v9.843c0,4.507,0.038,6.923,0.114,7.246
		c0.038,0.134,0.485,0.199,1.341,0.199C167.464,91.026,167.597,91.104,167.597,91.255z M163.376,84.095
		c0-1.826-0.199-2.996-0.6-3.51c-0.513-0.646-1.17-0.97-1.967-0.97c-1.027,0-1.846,0.533-2.455,1.599
		c-0.609,1.063-0.912,2.491-0.912,4.277c0,1.713,0.267,3.178,0.799,4.395c0.229,0.514,0.565,0.937,1.012,1.269
		c0.447,0.333,0.908,0.499,1.384,0.499c0.588,0,1.122-0.175,1.598-0.526c0.475-0.353,0.784-0.775,0.927-1.27
		C163.304,89.362,163.376,87.442,163.376,84.095z"/>
	<path fill="#FFFFFF" d="M179.066,88.717c0,0.189-0.148,0.526-0.442,1.012c-0.295,0.485-0.595,0.88-0.898,1.185
		c-0.818,0.836-1.912,1.255-3.282,1.255c-1.711,0-3.142-0.618-4.293-1.854c-1.149-1.236-1.726-2.767-1.726-4.593
		c0-1.902,0.547-3.49,1.64-4.766c1.095-1.272,2.459-1.909,4.094-1.909c1.352,0,2.483,0.394,3.395,1.184
		c0.915,0.788,1.398,1.802,1.456,3.038c-0.608,0.095-1.418,0.133-2.426,0.113h-1.996c-0.133,0-1.274,0.029-3.423,0.085
		c-0.097,0.626-0.143,1.223-0.143,1.791c0,1.915,0.366,3.388,1.098,4.421c0.732,1.032,1.764,1.548,3.096,1.548
		c0.761,0,1.368-0.17,1.826-0.513c0.456-0.343,0.95-0.999,1.482-1.97c0.076-0.15,0.181-0.227,0.314-0.227
		C178.99,88.517,179.066,88.583,179.066,88.717z M176.583,82.896c-0.076-2.283-0.893-3.424-2.452-3.424
		c-1.54,0-2.502,1.141-2.882,3.424H176.583z"/>
	<path fill="#FFFFFF" d="M189.393,88.193c0,1.106-0.401,2.044-1.203,2.815c-0.804,0.773-1.762,1.159-2.876,1.159
		c-0.643,0-1.427-0.229-2.351-0.685c-0.246-0.133-0.464-0.2-0.652-0.2c-0.266,0-0.463,0.181-0.595,0.542
		c-0.076,0.229-0.18,0.343-0.312,0.343c-0.133,0-0.199-0.077-0.199-0.229c0-0.096,0-0.209,0-0.343c0-0.38,0-0.941,0-1.683
		c0-0.057,0-0.286,0-0.685c0-0.399,0-0.666,0-0.798v-0.315c0-0.209,0.067-0.313,0.2-0.313c0.152,0,0.237,0.105,0.256,0.316
		c0.114,0.881,0.361,1.571,0.742,2.068c0.761,0.997,1.778,1.495,3.053,1.495c0.685,0,1.236-0.199,1.654-0.601
		c0.418-0.399,0.629-0.934,0.629-1.602c0-0.743-0.239-1.334-0.715-1.772c-0.267-0.247-0.509-0.424-0.728-0.528
		c-0.218-0.106-0.86-0.357-1.925-0.758c-2.111-0.801-3.167-2.001-3.167-3.603c0-1.066,0.357-1.964,1.075-2.688
		c0.717-0.724,1.604-1.085,2.661-1.085c0.376,0,0.943,0.113,1.697,0.342c0.189,0.057,0.358,0.085,0.51,0.085
		c0.396,0,0.642-0.188,0.735-0.569c0.058-0.191,0.142-0.287,0.256-0.287c0.132,0,0.198,0.076,0.198,0.229c0,0.02,0,0.076,0,0.171
		v1.197c-0.02,0.457,0.027,1.189,0.143,2.197v0.058c0,0.151-0.076,0.228-0.229,0.228c-0.114,0-0.257-0.287-0.429-0.862
		c-0.209-0.691-0.574-1.248-1.098-1.67c-0.524-0.423-1.127-0.635-1.812-0.635c-0.646,0-1.179,0.2-1.597,0.601
		c-0.419,0.401-0.628,0.906-0.628,1.516c0,0.953,0.637,1.678,1.912,2.173c1.977,0.782,3.233,1.43,3.765,1.944
		C189.051,86.431,189.393,87.239,189.393,88.193z"/>
	<path fill="#FFFFFF" d="M203.77,91.255c0,0.133-0.132,0.199-0.398,0.199h-0.143c-0.151,0-0.313,0-0.485,0h-0.228
		c-0.933,0-1.722,0.185-2.368,0.551c-0.268,0.146-0.428,0.221-0.484,0.221c-0.172,0-0.258-0.115-0.258-0.343l0.029-0.885
		c-0.818,0.818-1.787,1.228-2.909,1.228c-1.599,0-2.916-0.618-3.952-1.85c-1.037-1.231-1.555-2.803-1.555-4.712
		c0-1.968,0.518-3.563,1.555-4.785c1.036-1.223,2.392-1.833,4.065-1.833c1.293,0,2.264,0.464,2.909,1.396v-4.45
		c0-1.444-0.065-2.339-0.195-2.683c-0.114-0.284-0.282-0.418-0.508-0.398c-0.544,0.057-0.872,0.086-0.984,0.086
		c-0.244,0-0.365-0.086-0.365-0.257c0-0.172,0.104-0.256,0.312-0.256l1.021,0.027c0.566,0.02,1.435-0.246,2.607-0.799
		c0.075-0.038,0.141-0.057,0.198-0.057c0.189,0,0.284,0.229,0.284,0.685c0,0.114,0,0.313,0,0.599c0,0.305,0,0.571,0,0.799v9.843
		c0,4.507,0.037,6.923,0.113,7.246c0.038,0.134,0.485,0.199,1.341,0.199C203.638,91.026,203.77,91.104,203.77,91.255z
		 M199.548,84.095c0-1.826-0.199-2.996-0.598-3.51c-0.515-0.646-1.17-0.97-1.969-0.97c-1.027,0-1.846,0.533-2.454,1.599
		c-0.609,1.063-0.912,2.491-0.912,4.277c0,1.713,0.266,3.178,0.799,4.395c0.228,0.514,0.565,0.937,1.012,1.269
		c0.447,0.333,0.909,0.499,1.384,0.499c0.59,0,1.122-0.175,1.599-0.526c0.475-0.353,0.784-0.775,0.927-1.27
		C199.477,89.362,199.548,87.442,199.548,84.095z"/>
	<path fill="#FFFFFF" d="M215.239,88.717c0,0.189-0.148,0.526-0.442,1.012c-0.296,0.485-0.595,0.88-0.899,1.185
		c-0.818,0.836-1.911,1.255-3.281,1.255c-1.711,0-3.142-0.618-4.293-1.854c-1.15-1.236-1.726-2.767-1.726-4.593
		c0-1.902,0.547-3.49,1.64-4.766c1.095-1.272,2.458-1.909,4.094-1.909c1.351,0,2.482,0.394,3.396,1.184
		c0.913,0.788,1.397,1.802,1.456,3.038c-0.609,0.095-1.419,0.133-2.426,0.113h-1.997c-0.133,0-1.274,0.029-3.423,0.085
		c-0.097,0.626-0.144,1.223-0.144,1.791c0,1.915,0.366,3.388,1.099,4.421c0.732,1.032,1.764,1.548,3.096,1.548
		c0.76,0,1.369-0.17,1.826-0.513c0.455-0.343,0.949-0.999,1.482-1.97c0.076-0.15,0.181-0.227,0.313-0.227
		C215.163,88.517,215.239,88.583,215.239,88.717z M212.757,82.896c-0.077-2.283-0.895-3.424-2.453-3.424
		c-1.54,0-2.502,1.141-2.883,3.424H212.757z"/>
	<path fill="#FFFFFF" d="M233.354,91.599c0,0.17-0.209,0.255-0.626,0.255h-0.341h-1.08c-0.721,0-1.451,0-2.189,0
		c-1.308,0-2.142,0-2.502,0s-0.645,0-0.853,0c-0.455,0-0.683-0.085-0.683-0.256c0-0.172,0.134-0.256,0.399-0.256
		c0.418,0,0.865-0.011,1.341-0.029c0.589-0.019,0.908-0.166,0.956-0.441c0.047-0.275,0.071-0.868,0.071-1.78V75.705
		c0-0.607-0.02-0.968-0.058-1.082c-0.038-0.113-0.173-0.17-0.403-0.17c-0.097,0-0.72,0.047-1.871,0.142
		c-0.23,0.02-0.384,0.028-0.461,0.028c-0.23,0-0.345-0.066-0.345-0.199c0-0.152,0.112-0.237,0.34-0.256
		c0.89-0.097,1.789-0.368,2.696-0.814c0.909-0.446,1.638-0.975,2.187-1.584c0.208-0.17,0.351-0.256,0.426-0.256
		c0.151,0,0.228,0.095,0.228,0.285v0.542c0,0.152,0,0.324,0,0.514v17.06c0,0.685,0.032,1.084,0.1,1.198
		c0.067,0.113,0.301,0.181,0.699,0.199h0.656h0.484h0.429C233.22,91.312,233.354,91.407,233.354,91.599z"/>
	<path fill="#FFFFFF" d="M250.128,80.5c0,2.492-0.576,4.749-1.727,6.774c-1.151,2.026-2.658,3.43-4.522,4.209
		c-1.369,0.57-2.737,0.855-4.106,0.855c-0.495,0-0.742-0.066-0.742-0.199c0-0.114,0.132-0.19,0.399-0.229
		c3.214-0.417,5.42-2.015,6.618-4.792c0.475-1.122,0.809-2.549,0.998-4.279c-1.046,0.989-2.225,1.483-3.536,1.483
		c-1.256,0-2.397-0.38-3.425-1.141c-1.502-1.104-2.252-2.729-2.252-4.878c0-1.826,0.556-3.381,1.668-4.665s2.458-1.926,4.036-1.926
		c1.94,0,3.524,0.818,4.749,2.455C249.514,75.802,250.128,77.913,250.128,80.5z M247.132,78.616c0-2.168-0.399-3.879-1.198-5.134
		c-0.552-0.855-1.303-1.284-2.254-1.284c-1.959,0-2.938,2.054-2.938,6.162c0,3.519,1.093,5.277,3.28,5.277
		c0.97,0,1.73-0.441,2.281-1.326C246.856,81.427,247.132,80.195,247.132,78.616z"/>
	<path fill="#FFFFFF" d="M265.246,86.262c0,1.579-0.638,2.93-1.911,4.052c-1.407,1.236-3.205,1.854-5.392,1.854
		c-1.788,0-3.1-0.419-3.938-1.255c-0.532-0.532-0.799-1.143-0.799-1.826c0-0.59,0.187-1.06,0.558-1.412
		c0.371-0.352,0.87-0.528,1.497-0.528c0.495,0,0.903,0.144,1.227,0.431c0.324,0.287,0.485,0.651,0.485,1.091
		c0,0.671-0.447,1.196-1.341,1.579c-0.362,0.153-0.542,0.307-0.542,0.459c0,0.249,0.247,0.475,0.741,0.676
		c0.495,0.2,1.037,0.301,1.626,0.301c1.445,0,2.62-0.496,3.524-1.487c0.903-0.992,1.354-2.288,1.354-3.891
		c0-3.224-1.446-4.835-4.337-4.835c-0.284,0-0.494,0-0.627,0h-0.199c-0.247,0-0.371-0.086-0.371-0.256
		c0-0.133,0.229-0.236,0.685-0.313c1.331-0.188,2.357-0.677,3.08-1.464c0.724-0.787,1.084-1.796,1.084-3.028
		c0-1.214-0.312-2.185-0.941-2.915c-0.627-0.73-1.473-1.096-2.538-1.096c-0.779,0-1.459,0.167-2.04,0.5
		c-0.58,0.332-0.87,0.718-0.87,1.154c0,0.173,0.133,0.285,0.4,0.342c1.254,0.306,1.882,0.828,1.882,1.57
		c0,0.971-0.505,1.455-1.512,1.455c-0.646,0-1.165-0.189-1.555-0.57c-0.391-0.38-0.585-0.885-0.585-1.513
		c0-1.026,0.442-1.887,1.327-2.582c0.884-0.693,2.115-1.041,3.693-1.041c1.808,0,3.186,0.467,4.137,1.397
		c0.95,0.933,1.428,2.017,1.428,3.253c0,1.712-0.81,2.977-2.426,3.794c-0.57,0.285-1.493,0.523-2.768,0.713v0.201
		c1.579,0.057,2.854,0.407,3.822,1.054C264.534,83.077,265.246,84.456,265.246,86.262z"/>
	<path fill="#FFFFFF" d="M280.537,80.5c0,2.492-0.575,4.749-1.726,6.774c-1.152,2.026-2.658,3.43-4.522,4.209
		c-1.368,0.57-2.738,0.855-4.107,0.855c-0.494,0-0.742-0.066-0.742-0.199c0-0.114,0.134-0.19,0.399-0.229
		c3.214-0.417,5.421-2.015,6.618-4.792c0.477-1.122,0.809-2.549,0.999-4.279c-1.046,0.989-2.226,1.483-3.537,1.483
		c-1.256,0-2.396-0.38-3.424-1.141c-1.503-1.104-2.253-2.729-2.253-4.878c0-1.826,0.556-3.381,1.669-4.665
		c1.112-1.284,2.457-1.926,4.035-1.926c1.941,0,3.524,0.818,4.751,2.455C279.924,75.802,280.537,77.913,280.537,80.5z
		 M277.541,78.616c0-2.168-0.398-3.879-1.196-5.134c-0.553-0.855-1.304-1.284-2.255-1.284c-1.959,0-2.938,2.054-2.938,6.162
		c0,3.519,1.092,5.277,3.28,5.277c0.97,0,1.73-0.441,2.282-1.326C277.266,81.427,277.541,80.195,277.541,78.616z"/>
</g>
<g>
	<path fill="#FFFFFF" d="M32.132,138.754c-0.357-0.771-0.762-1.289-1.213-1.553c-0.451-0.263-0.678-0.356-0.678-0.281h8.975
		c0-0.075-0.226,0.019-0.677,0.281c-0.452,0.264-0.866,0.782-1.242,1.553c-0.376,0.771-0.564,1.91-0.564,3.415v31.329h9.257
		c1.694,0,3.152-0.348,4.375-1.045c1.223-0.696,2.098-1.589,2.625-2.681l-1.016,5.982H30.241c0,0.113,0.227,0.029,0.678-0.255
		c0.451-0.281,0.855-0.847,1.213-1.693s0.536-2.077,0.536-3.696v-27.941C32.668,140.664,32.489,139.525,32.132,138.754z"/>
	<path fill="#FFFFFF" d="M71.56,175.473c-0.828-0.602-1.299-1.298-1.412-2.088c-0.677,0.978-1.57,1.731-2.681,2.258
		c-1.11,0.525-2.211,0.79-3.302,0.79c-1.732,0-3.181-0.499-4.347-1.496c-1.167-0.996-1.75-2.304-1.75-3.923
		c0-4.177,3.913-6.266,11.741-6.266v-0.621c0-2.069-0.302-3.593-0.903-4.572c-0.828-1.393-2.183-2.089-4.063-2.089
		c-1.469,0-2.682,0.434-3.641,1.299c-0.961,0.866-1.439,1.995-1.439,3.387c-0.227-0.375-0.406-0.715-0.537-1.016
		c-0.133-0.302-0.197-0.715-0.197-1.242c0-1.354,0.639-2.549,1.919-3.585c1.278-1.034,2.954-1.552,5.024-1.552
		c2.935,0,5.023,0.979,6.266,2.936c0.413,0.602,0.714,1.354,0.902,2.257c0.188,0.903,0.283,2.089,0.283,3.558v6.717
		c0,1.167,0.328,2.069,0.986,2.709s1.59,0.96,2.795,0.96h0.733l-3.33,2.54C73.403,176.395,72.387,176.074,71.56,175.473z
		 M63.713,167.57c-1.054,0.753-1.58,1.769-1.58,3.049c0,1.054,0.282,1.882,0.847,2.483s1.316,0.902,2.258,0.902
		c0.715,0,1.393-0.169,2.032-0.507c0.64-0.339,1.186-0.811,1.637-1.412c0.602-0.79,0.903-1.862,0.903-3.217v-2.428
		C66.798,166.441,64.767,166.818,63.713,167.57z"/>
	<path fill="#FFFFFF" d="M122.7,175.246c-2.296,0.792-4.61,1.187-6.943,1.187c-3.5,0-6.756-0.81-9.766-2.428
		c-3.011-1.617-5.428-3.951-7.253-7c-1.825-3.047-2.737-6.622-2.737-10.725c0-3.838,0.837-7.28,2.512-10.329
		c1.674-3.048,4.064-5.429,7.168-7.141c3.105-1.712,6.727-2.568,10.867-2.568c4.402,0,8.316,0.959,11.74,2.879v6.266
		c-1.166-2.069-2.86-3.716-5.08-4.939c-2.221-1.223-4.592-1.834-7.112-1.834c-3.199,0-5.975,0.753-8.325,2.257
		c-2.354,1.506-4.149,3.566-5.392,6.182c-1.241,2.615-1.862,5.542-1.862,8.777c0,3.65,0.705,6.83,2.116,9.539
		c1.411,2.71,3.321,4.79,5.729,6.238s5.099,2.173,8.072,2.173c4.778,0,8.729-1.392,11.854-4.177v2.71
		C126.858,173.479,124.995,174.456,122.7,175.246z"/>
	<path fill="#FFFFFF" d="M148.327,175.473c-0.829-0.602-1.299-1.298-1.412-2.088c-0.678,0.978-1.571,1.731-2.682,2.258
		c-1.109,0.525-2.211,0.79-3.301,0.79c-1.732,0-3.182-0.499-4.348-1.496c-1.166-0.996-1.749-2.304-1.749-3.923
		c0-4.177,3.913-6.266,11.741-6.266v-0.621c0-2.069-0.302-3.593-0.904-4.572c-0.828-1.393-2.182-2.089-4.063-2.089
		c-1.468,0-2.682,0.434-3.641,1.299c-0.96,0.866-1.439,1.995-1.439,3.387c-0.226-0.375-0.405-0.715-0.536-1.016
		c-0.133-0.302-0.197-0.715-0.197-1.242c0-1.354,0.639-2.549,1.918-3.585c1.279-1.034,2.954-1.552,5.024-1.552
		c2.935,0,5.023,0.979,6.266,2.936c0.413,0.602,0.715,1.354,0.903,2.257c0.188,0.903,0.282,2.089,0.282,3.558v6.717
		c0,1.167,0.329,2.069,0.987,2.709s1.59,0.96,2.795,0.96h0.733l-3.331,2.54C150.17,176.395,149.153,176.074,148.327,175.473z
		 M140.48,167.57c-1.054,0.753-1.581,1.769-1.581,3.049c0,1.054,0.283,1.882,0.848,2.483s1.316,0.902,2.258,0.902
		c0.714,0,1.392-0.169,2.031-0.507c0.641-0.339,1.186-0.811,1.637-1.412c0.603-0.79,0.904-1.862,0.904-3.217v-2.428
		C143.565,166.441,141.533,166.818,140.48,167.57z"/>
	<path fill="#FFFFFF" d="M171.159,137.286c-0.959-0.395-1.929-0.593-2.907-0.593c-1.882,0-3.255,0.669-4.12,2.004
		c-0.866,1.337-1.299,3.058-1.299,5.165v11.347h5.871v2.257h-5.871v12.645c0,1.619,0.17,2.85,0.508,3.696
		c0.34,0.847,0.715,1.412,1.129,1.693c0.414,0.284,0.622,0.368,0.622,0.255h-8.186c0,0.113,0.216,0.029,0.649-0.255
		c0.432-0.281,0.818-0.847,1.156-1.693c0.34-0.847,0.509-2.077,0.509-3.696v-12.645h-3.161v-2.257h3.161v-7.847
		c0-2.634,0.442-4.958,1.327-6.972c0.883-2.013,2.125-3.584,3.725-4.713s3.434-1.693,5.504-1.693c1.617,0,2.896,0.169,3.838,0.509
		v4.401C172.938,138.218,172.118,137.682,171.159,137.286z"/>
	<path fill="#FFFFFF" d="M175.929,174.937c-1.468-0.996-2.588-2.295-3.358-3.895c-0.772-1.599-1.157-3.302-1.157-5.108
		c0-2.333,0.461-4.347,1.383-6.04s2.117-2.973,3.584-3.838c1.469-0.865,2.992-1.299,4.572-1.299c2.258,0,4.206,0.817,5.844,2.455
		c1.637,1.638,2.529,3.905,2.681,6.802H174.8c0,1.807,0.338,3.397,1.017,4.771c0.677,1.374,1.589,2.428,2.737,3.161
		c1.147,0.733,2.398,1.101,3.754,1.101c3.537,0,5.927-1.13,7.169-3.387c-0.339,2.031-1.262,3.669-2.767,4.91
		c-1.506,1.242-3.35,1.863-5.531,1.863C179.146,176.433,177.396,175.934,175.929,174.937z M176.775,158.172
		c-1.054,1.035-1.693,2.381-1.919,4.036h10.273c0-1.73-0.461-3.095-1.383-4.093c-0.923-0.997-1.986-1.496-3.189-1.496
		C179.09,156.619,177.828,157.138,176.775,158.172z"/>
	<path fill="#FFFFFF" d="M197.661,174.542c-0.941-1.261-1.412-2.774-1.412-4.545v-12.531h-3.16l6.773-7.676v5.419h7.225v2.257
		h-7.225v11.911c0,1.431,0.375,2.512,1.129,3.245c0.752,0.734,1.617,1.101,2.597,1.101c0.752,0,1.485-0.225,2.201-0.677
		c0.715-0.452,1.298-1.073,1.75-1.863c-0.564,3.5-2.466,5.25-5.701,5.25C199.993,176.433,198.601,175.802,197.661,174.542z"/>
	<path fill="#FFFFFF" d="M215.666,174.937c-1.467-0.996-2.587-2.295-3.358-3.895c-0.771-1.599-1.157-3.302-1.157-5.108
		c0-2.333,0.461-4.347,1.383-6.04s2.117-2.973,3.585-3.838c1.467-0.865,2.992-1.299,4.572-1.299c2.258,0,4.205,0.817,5.842,2.455
		c1.638,1.638,2.53,3.905,2.682,6.802h-14.676c0,1.807,0.338,3.397,1.015,4.771c0.678,1.374,1.59,2.428,2.738,3.161
		c1.147,0.733,2.399,1.101,3.754,1.101c3.536,0,5.927-1.13,7.169-3.387c-0.338,2.031-1.262,3.669-2.766,4.91
		c-1.506,1.242-3.351,1.863-5.533,1.863C218.884,176.433,217.134,175.934,215.666,174.937z M216.514,158.172
		c-1.055,1.035-1.694,2.381-1.92,4.036h10.273c0-1.73-0.461-3.095-1.383-4.093c-0.923-0.997-1.985-1.496-3.189-1.496
		C218.827,156.619,217.566,157.138,216.514,158.172z"/>
	<path fill="#FFFFFF" d="M242.394,156.422c1.298-1.109,2.605-1.665,3.923-1.665c0.827,0,1.448,0.112,1.862,0.339v4.629
		c-0.827-1.018-1.994-1.524-3.499-1.524c-1.581,0-2.822,0.687-3.726,2.06c-0.903,1.375-1.354,3.133-1.354,5.278v4.572
		c0,2.107,0.244,3.556,0.733,4.346s0.96,1.224,1.411,1.299h-7.959c0.452-0.075,0.932-0.498,1.439-1.27s0.762-2.229,0.762-4.375
		v-8.523c0-1.581-0.254-2.662-0.762-3.245c-0.508-0.584-1.082-0.876-1.722-0.876l6.097-2.709v5.137
		C240.164,158.689,241.096,157.532,242.394,156.422z"/>
	<path fill="#FFFFFF" d="M253.287,158.342c-0.509-0.584-1.083-0.876-1.722-0.876l6.097-2.709v15.354
		c0,1.657,0.169,2.898,0.507,3.726c0.34,0.828,0.716,1.383,1.13,1.664c0.413,0.284,0.621,0.368,0.621,0.255h-8.129
		c0,0.113,0.207,0.029,0.621-0.255c0.413-0.281,0.79-0.836,1.129-1.664c0.339-0.827,0.508-2.068,0.508-3.726v-8.523
		C254.049,160.006,253.795,158.925,253.287,158.342z M256.928,139.799h5.023l-9.145,10.725L256.928,139.799z"/>
	<path fill="#FFFFFF" d="M278.379,175.473c-0.829-0.602-1.299-1.298-1.411-2.088c-0.678,0.978-1.572,1.731-2.682,2.258
		c-1.11,0.525-2.211,0.79-3.302,0.79c-1.732,0-3.182-0.499-4.347-1.496c-1.167-0.996-1.75-2.304-1.75-3.923
		c0-4.177,3.913-6.266,11.74-6.266v-0.621c0-2.069-0.301-3.593-0.902-4.572c-0.828-1.393-2.183-2.089-4.064-2.089
		c-1.468,0-2.682,0.434-3.641,1.299c-0.96,0.866-1.439,1.995-1.439,3.387c-0.226-0.375-0.405-0.715-0.536-1.016
		c-0.132-0.302-0.198-0.715-0.198-1.242c0-1.354,0.641-2.549,1.92-3.585c1.278-1.034,2.953-1.552,5.023-1.552
		c2.936,0,5.024,0.979,6.266,2.936c0.414,0.602,0.715,1.354,0.903,2.257c0.188,0.903,0.282,2.089,0.282,3.558v6.717
		c0,1.167,0.329,2.069,0.987,2.709c0.659,0.64,1.59,0.96,2.795,0.96h0.733l-3.33,2.54
		C280.222,176.395,279.206,176.074,278.379,175.473z M270.532,167.57c-1.054,0.753-1.581,1.769-1.581,3.049
		c0,1.054,0.283,1.882,0.847,2.483c0.565,0.602,1.317,0.902,2.258,0.902c0.716,0,1.393-0.169,2.033-0.507
		c0.64-0.339,1.186-0.811,1.637-1.412c0.602-0.79,0.902-1.862,0.902-3.217v-2.428C273.617,166.441,271.585,166.818,270.532,167.57z"
		/>
</g>
</svg>
